<svg width="47" height="47" viewBox="0 0 47 47" fill="none" xmlns="http://www.w3.org/2000/svg">
<g clip-path="url(#clip0_2_100)">
<path d="M23.7019 32.6973C28.8795 32.6973 33.0769 28.4999 33.0769 23.3223C33.0769 18.1446 28.8795 13.9473 23.7019 13.9473C18.5242 13.9473 14.3269 18.1446 14.3269 23.3223C14.3269 28.4999 18.5242 32.6973 23.7019 32.6973Z" stroke="#AF4BFB" stroke-width="3.75" stroke-linecap="round" stroke-linejoin="round"/>
<path d="M23.7019 2.69727V6.44727" stroke="#AF4BFB" stroke-width="3.75" stroke-linecap="round" stroke-linejoin="round"/>
<path d="M23.7019 40.1973V43.9473" stroke="#AF4BFB" stroke-width="3.75" stroke-linecap="round" stroke-linejoin="round"/>
<path d="M9.11398 8.73438L11.7765 11.3969" stroke="#AF4BFB" stroke-width="3.75" stroke-linecap="round" stroke-linejoin="round"/>
<path d="M35.6267 35.2471L38.2892 37.9096" stroke="#AF4BFB" stroke-width="3.75" stroke-linecap="round" stroke-linejoin="round"/>
<path d="M3.07687 23.3223H6.82687" stroke="#AF4BFB" stroke-width="3.75" stroke-linecap="round" stroke-linejoin="round"/>
<path d="M40.5769 23.3223H44.3269" stroke="#AF4BFB" stroke-width="3.75" stroke-linecap="round" stroke-linejoin="round"/>
<path d="M9.11398 37.9096L11.7765 35.2471" stroke="#AF4BFB" stroke-width="3.75" stroke-linecap="round" stroke-linejoin="round"/>
<path d="M35.6267 11.3969L38.2892 8.73438" stroke="#AF4BFB" stroke-width="3.75" stroke-linecap="round" stroke-linejoin="round"/>
</g>
<defs>
<clipPath id="clip0_2_100">
<rect width="45" height="45" fill="white" transform="translate(1.20187 0.822266)"/>
</clipPath>
</defs>
</svg>
